<svg id="Calque_1" data-name="Calque 1" xmlns="http://www.w3.org/2000/svg" viewBox="0 0 377.72 242"><defs><style>.cls-1{fill:none;stroke:#cbbeab;stroke-miterlimit:10;stroke-width:4px;}.cls-2{fill:#cbbeab;}</style></defs><g id="Calque_2" data-name="Calque 2"><path class="cls-1" d="M274.58,276.59c-11-16.92-41.07-29.06-76.48-29.06-28.39,0-53.37,7.8-67.81,19.62-5.33,4.36-8.46,11.4-8.53,18.87l-1.63,176.85" transform="translate(-118.13 -245.53)"/><path class="cls-1" d="M120.13,450.2c11-16.26,41.07-27.94,76.48-27.94,28.4,0,53.37,7.5,67.81,18.86a21.82,21.82,0,0,1,6.24,7.95" transform="translate(-118.13 -245.53)"/><path class="cls-1" d="M442.56,291.83c-1.53-2.15.45-11.67-1.75-13.85-15.57-15.41-47.06-30.45-82-30.45-39.61,0-73.32,12.29-85.89,29.47L271,462.87" transform="translate(-118.13 -245.53)"/><path class="cls-1" d="M271.19,449c12.94-16.26,48.44-27.94,90.21-27.94,33.48,0,62.94,7.51,80,18.87,3.14,2.09-2.16,6-.44,9.07" transform="translate(-118.13 -245.53)"/><path class="cls-1" d="M456.6,304.44c19.54,0,37.74,13,37.24,37.36-.06,3.13-.17,6.25-.17,9.37v24c.18,29.23-16.68,40.61-37.07,40.61" transform="translate(-118.13 -245.53)"/><path class="cls-2" d="M353.1,311.21s70.64,4.15,84.6-29.54l8.51-1.23,2.52,170.91a17,17,0,0,1-4.57,12C434.85,473,409.7,490.76,353.1,487Z" transform="translate(-118.13 -245.53)"/></g></svg>