<svg xmlns="http://www.w3.org/2000/svg" width="54.236" height="48.785" viewBox="0 0 54.236 48.785">
  <path id="upload" d="M21.693,31.428H32.54V15.158h8.135L27.117,1.6,13.558,15.158h8.135Zm30.745,4.154c-.569-.607-4.369-4.673-5.454-5.732a4.078,4.078,0,0,0-2.825-1.134H39.4L47.7,36.835H38.094a.744.744,0,0,0-.651.361l-2.213,5.079H19L16.79,37.2a.746.746,0,0,0-.651-.361H6.53l8.306-8.118H10.074A4.08,4.08,0,0,0,7.248,29.85c-1.085,1.063-4.884,5.128-5.454,5.732C.469,37-.261,38.121.086,39.511l1.522,8.335A3.635,3.635,0,0,0,5,50.385H49.235a3.631,3.631,0,0,0,3.395-2.539l1.522-8.335c.342-1.391-.385-2.517-1.713-3.929Z" transform="translate(0 -1.6)" fill="#cbbeab"/>
</svg>
